<svg xmlns="http://www.w3.org/2000/svg" width="600" height="840" viewBox="0 0 600 840"><rect width="600" height="840" rx="28" fill="#eefaf8"/><rect x="42" y="30" width="516" height="780" rx="22" fill="#fff"/><rect x="42" y="30" width="516" height="126" rx="22" fill="#0f766e"/><rect x="62" y="66" width="220" height="18" rx="9" fill="#fff"/><rect x="62" y="98" width="178" height="10" rx="5" fill="#ccfbf1"/><rect x="62" y="186" width="150" height="12" rx="6" fill="#0f766e"/><rect x="62" y="220" width="96" height="120" rx="16" fill="#ecfeff"/><rect x="172" y="220" width="96" height="120" rx="16" fill="#ecfeff"/><rect x="282" y="220" width="96" height="120" rx="16" fill="#ecfeff"/><rect x="392" y="220" width="96" height="120" rx="16" fill="#ecfeff"/><rect x="62" y="390" width="466" height="10" rx="5" fill="#d7def2"/><rect x="62" y="414" width="442" height="10" rx="5" fill="#e8edf9"/><text x="62" y="690" font-family="Arial,sans-serif" font-size="34" font-weight="700" fill="#111827">Data Analyst</text><text x="62" y="726" font-family="Arial,sans-serif" font-size="18" fill="#667085">Dashboard and analytics resume</text></svg>
