<svg xmlns="http://www.w3.org/2000/svg" width="600" height="840" viewBox="0 0 600 840"><rect width="600" height="840" rx="28" fill="#f3f7ff"/><rect x="42" y="30" width="516" height="780" rx="22" fill="#fff"/><rect x="42" y="30" width="516" height="126" rx="22" fill="#4454b8"/><rect x="62" y="64" width="220" height="18" rx="9" fill="#fff"/><rect x="62" y="96" width="180" height="10" rx="5" fill="#dfe6ff"/><rect x="62" y="184" width="220" height="280" rx="18" fill="#f8faff"/><rect x="304" y="184" width="224" height="280" rx="18" fill="#f8faff"/><rect x="80" y="210" width="120" height="12" rx="6" fill="#4454b8"/><rect x="80" y="240" width="176" height="10" rx="5" fill="#d7def2"/><rect x="80" y="264" width="164" height="10" rx="5" fill="#e8edf9"/><rect x="322" y="210" width="120" height="12" rx="6" fill="#4454b8"/><rect x="322" y="240" width="176" height="10" rx="5" fill="#d7def2"/><rect x="322" y="264" width="164" height="10" rx="5" fill="#e8edf9"/><text x="62" y="690" font-family="Arial,sans-serif" font-size="34" font-weight="700" fill="#111827">ATS Internship</text><text x="62" y="726" font-family="Arial,sans-serif" font-size="18" fill="#667085">Student-first internship resume</text></svg>
